<?xml version="1.0" encoding="utf-8"?>
<svg version="1.1" id="图层_1" x="0px" y="0px" viewBox="0 0 107 61" style="enable-background:new 0 0 107 61;" xmlns="http://www.w3.org/2000/svg">
  <style type="text/css">
	.st0{fill:#D0D0FF;stroke:#9966CC;stroke-miterlimit:10;}
</style>
  <title>task_1</title>
  <g id="图层_1-2">
    <path class="st0" d="M8.9,0.5h89.2c4.6,0,8.4,3.8,8.4,8.4v43.2c0,4.6-3.8,8.4-8.4,8.4H8.9c-4.6,0-8.4-3.8-8.4-8.4V8.9 C0.5,4.3,4.3,0.5,8.9,0.5z"/>
    <path class="st1" d="M 50.224 43.069 C 50.224 43.069 48.093 43.069 48.093 40.939 C 48.093 38.808 50.224 32.416 58.747 32.416 C 67.27 32.416 69.4 38.808 69.4 40.939 C 69.4 43.069 67.27 43.069 67.27 43.069 L 50.224 43.069 Z M 58.747 30.285 C 63.667 30.285 66.743 24.957 64.282 20.696 C 63.14 18.719 61.031 17.5 58.747 17.5 C 53.827 17.5 50.75 22.827 53.211 27.089 C 54.352 29.066 56.462 30.285 58.747 30.285 Z M 46.422 43.069 C 46.106 42.405 45.949 41.674 45.962 40.939 C 45.962 38.051 47.41 35.079 50.087 33.012 C 48.751 32.6 47.36 32.399 45.962 32.416 C 37.438 32.416 35.308 38.808 35.308 40.939 C 35.308 43.069 37.438 43.069 37.438 43.069 L 46.422 43.069 Z M 44.897 30.285 C 48.996 30.285 51.56 25.846 49.51 22.294 C 48.557 20.645 46.799 19.63 44.897 19.63 C 40.794 19.63 38.234 24.069 40.284 27.621 C 41.233 29.268 42.993 30.285 44.897 30.285 Z" style="fill: rgb(153, 102, 204);"/>
  </g>
</svg>
