<?xml version="1.0" encoding="UTF-8" standalone="no"?>
<!-- Generator: Adobe Illustrator 21.0.0, SVG Export Plug-In . SVG Version: 6.00 Build 0)  -->

<svg
   version="1.1"
   id="图层_1"
   x="0px"
   y="0px"
   viewBox="0 0 107 61"
   style="enable-background:new 0 0 107 61;"
   xml:space="preserve"
   sodipodi:docname="service-task.svg"
   inkscape:version="1.1.1 (3bf5ae0d25, 2021-09-20)"
   xmlns:inkscape="http://www.inkscape.org/namespaces/inkscape"
   xmlns:sodipodi="http://sodipodi.sourceforge.net/DTD/sodipodi-0.dtd"
   xmlns="http://www.w3.org/2000/svg"
   xmlns:svg="http://www.w3.org/2000/svg"><defs
   id="defs854" /><sodipodi:namedview
   id="namedview852"
   pagecolor="#ffffff"
   bordercolor="#666666"
   borderopacity="1.0"
   inkscape:pageshadow="2"
   inkscape:pageopacity="0.0"
   inkscape:pagecheckerboard="0"
   showgrid="false"
   inkscape:zoom="8.6769271"
   inkscape:cx="33.825339"
   inkscape:cy="21.551408"
   inkscape:window-width="1920"
   inkscape:window-height="1027"
   inkscape:window-x="-8"
   inkscape:window-y="-8"
   inkscape:window-maximized="1"
   inkscape:current-layer="图层_1" />
<style
   type="text/css"
   id="style840">
	.st0{fill:#FFF1F0;stroke:#FF4D4F;stroke-miterlimit:10;}
	.st1{fill:#FF4D4F;}
</style>
<title
   id="title842">task_1</title>
<g
   id="图层_1-2">
	<path
   class="st0"
   d="M8.9,0.5h89.2c4.6,0,8.4,3.8,8.4,8.4v43.2c0,4.6-3.8,8.4-8.4,8.4H8.9c-4.6,0-8.4-3.8-8.4-8.4V8.9   C0.5,4.3,4.3,0.5,8.9,0.5z"
   id="path844" />
	
	
</g><path
   d="m 57.330458,36.35209 -1.91523,-2.340835 c 0.212804,-0.638411 0.425607,-1.064017 0.425607,-1.489623 l 3.192048,-0.212804 c 0.212804,0 0.212804,0 0.212804,-0.212803 V 27.83996 c 0,-0.212803 0,-0.212803 -0.212804,-0.212803 l -3.192048,-0.212804 -0.638409,-1.27682 1.915229,-2.340836 v -0.212802 l -2.766443,-2.979247 h -0.212803 l -2.55364,1.91523 -1.276819,-0.63841 -0.425606,-2.979246 c 0,-0.212803 0,-0.212803 -0.212804,-0.212803 h -4.043262 c -0.212804,0 -0.212804,0 -0.212804,0.212803 l -0.212803,3.192049 c -0.425606,0.212803 -0.851213,0.212803 -1.276819,0.638409 l -2.553639,-2.128032 h -0.212804 l -2.766443,2.979247 v 0.212802 l 1.91523,2.553639 -0.63841,1.27682 -2.979245,0.212804 c -0.212804,0 -0.212804,0.212802 -0.212804,0.425607 v 4.043261 c 0,0.212804 0,0.212804 0.212804,0.212804 l 3.192049,0.425606 0.638409,1.27682 -1.915228,2.340836 v 0.212803 l 2.766443,2.766442 h 0.212802 l 2.340837,-1.915229 c 0.425606,0.212804 0.851213,0.425607 1.489622,0.63841 l 0.212804,3.192048 c 0,0.212804 0,0.212804 0.212803,0.212804 h 4.043263 c 0.212802,0 0.212802,0 0.212802,-0.212804 l 0.425607,-3.192048 c 0.425608,-0.425606 0.851213,-0.63841 1.27682,-0.851213 l 2.340836,1.915228 h 0.212803 l 2.766443,-2.766441 c 0.212803,0 0.212803,-0.212804 0.212802,-0.212804 z m -9.363344,-1.064016 c 0,0 -0.212803,0 0,0 -2.766443,0 -4.894475,-2.128033 -4.894475,-4.894475 0,-2.766442 2.128032,-4.894475 4.894475,-4.894475 2.553639,0 4.681672,2.128033 4.894475,4.681671 -0.212803,2.766443 -2.340836,5.107279 -4.894475,5.107279 z M 70.311457,20.179042 67.970622,19.966238 c -0.212804,-0.425607 -0.425607,-1.064016 -0.851214,-1.489623 l 1.064017,-2.128033 V 16.13578 L 66.055392,14.858959 H 65.84259 l -1.27682,1.91523 h -1.489622 l -1.276821,-1.91523 h -0.212802 l -2.128033,1.276821 v 0.212802 l 1.064017,2.128033 c -0.425608,0.425607 -0.63841,0.851214 -0.851215,1.27682 l -2.553638,0.212803 c 0,0 -0.212804,0 -0.212804,0.212804 v 2.340836 c 0,0 0,0.212802 0.212804,0.212802 l 2.340836,0.212804 c 0.212802,0.425607 0.425607,1.064016 0.851213,1.489623 l -1.064017,2.128033 v 0.212803 l 2.128033,1.27682 h 0.212804 l 1.276819,-1.91523 h 1.489622 l 1.27682,1.91523 h 0.212804 l 2.128032,-1.27682 V 26.56314 l -1.064015,-2.128033 c 0.425605,-0.425607 0.638408,-0.851213 0.851212,-1.27682 l 2.340839,-0.212803 h 0.2128 v -2.766442 c 0.212805,0 0.212805,0 -10e-7,0 z m -6.5969,3.617655 c -1.27682,0 -2.340837,-1.064017 -2.340837,-2.340835 0,-1.27682 1.064017,-2.340837 2.340837,-2.340837 1.276819,0 2.340834,1.064017 2.340834,2.340837 0,1.276818 -1.064015,2.340835 -2.340834,2.340835 z m 6.5969,14.25782 -2.340835,-0.212803 C 67.757818,37.416107 67.545015,36.777697 67.119408,36.35209 l 1.064017,-2.128032 V 34.011255 L 66.055391,32.734434 H 65.84259 l -1.276821,1.915231 h -1.489622 l -1.276821,-1.915231 h -0.212802 l -2.128033,1.276821 v 0.212803 l 1.064017,2.128032 c -0.425608,0.425607 -0.63841,0.851214 -0.851215,1.27682 l -2.340835,0.212804 c 0,0 -0.212803,0 -0.212803,0.212803 v 2.553639 c 0,0 0,0.212804 0.212803,0.212804 l 2.340835,0.212803 c 0.212805,0.425605 0.425607,1.064017 0.851215,1.489621 l -1.064017,2.128037 v 0.2128 l 2.128033,1.27682 h 0.212802 l 1.276821,-1.915229 h 1.489622 l 1.276821,1.915229 h 0.212801 l 2.128034,-1.27682 v -0.2128 l -1.064017,-2.128037 c 0.425607,-0.425604 0.63841,-0.851212 0.851214,-1.489621 l 2.340835,-0.212803 c 0,0 0.212805,0 0.212805,-0.212804 l -0.212805,-2.553639 c 0.212805,0 0.212805,0 0,0 z m -6.5969,3.617655 c -1.27682,0 -2.340837,-1.064016 -2.340837,-2.340837 0,-1.276818 1.064017,-2.340835 2.340837,-2.340835 1.276819,0 2.340834,1.064017 2.340834,2.340835 0,1.276821 -1.064015,2.340837 -2.340834,2.340837 z"
   fill="#ff4d4f"
   p-id="11437"
   id="path950"
   style="stroke-width:0.0334583" />
</svg>
