<?xml version="1.0" encoding="utf-8"?>
<svg t="1562575958479" class="icon" viewBox="0 0 1024 1024" version="1.1" p-id="3448" width="64" height="64" xmlns="http://www.w3.org/2000/svg">
  <defs/>
  <path class="st1" d="M 455.181 847.99 C 455.181 847.99 398.336 847.99 398.336 791.172 C 398.336 734.326 455.181 563.815 682.538 563.815 C 909.893 563.815 966.713 734.326 966.713 791.172 C 966.713 847.99 909.893 847.99 909.893 847.99 L 455.181 847.99 Z M 682.538 506.97 C 813.781 506.97 895.835 364.841 830.186 251.177 C 799.722 198.44 743.465 165.921 682.538 165.921 C 551.293 165.921 469.212 308.021 534.86 421.713 C 565.298 474.451 621.583 506.97 682.538 506.97 Z M 353.76 847.99 C 345.33 830.277 341.142 810.778 341.489 791.172 C 341.489 714.132 380.116 634.852 451.526 579.714 C 415.887 568.723 378.782 563.362 341.489 563.815 C 114.106 563.815 57.287 734.326 57.287 791.172 C 57.287 847.99 114.106 847.99 114.106 847.99 L 353.76 847.99 Z M 313.079 506.97 C 422.423 506.97 490.819 388.556 436.134 293.804 C 410.712 249.815 363.817 222.74 313.079 222.74 C 203.63 222.74 135.341 341.153 190.024 435.905 C 215.339 479.839 262.289 506.97 313.079 506.97 Z" style="fill: rgb(153, 102, 204);"/>
</svg>